Coordinates
version=1
nRows=29
nColumns=34
inDegrees=no

Units are S.I. units (second, meters, Newtons, ...)
If the header above contains a line with 'inDegrees', this indicates whether rotational values are in degrees (yes) or radians (no).

endheader
time	pelvis_tilt	pelvis_list	pelvis_rotation	pelvis_tx	pelvis_ty	pelvis_tz	hip_flexion_r	hip_adduction_r	hip_rotation_r	knee_angle_r	ankle_angle_r	subtalar_angle_r	mtp_angle_r	hip_flexion_l	hip_adduction_l	hip_rotation_l	knee_angle_l	ankle_angle_l	subtalar_angle_l	mtp_angle_l	lumbar_extension	lumbar_bending	lumbar_rotation	arm_flex_r	arm_add_r	arm_rot_r	elbow_flex_r	pro_sup_r	arm_flex_l	arm_add_l	arm_rot_l	elbow_flex_l	pro_sup_l
1.59	-0.372324	-0.0929766	-0.125293	-0.387978	0.712838	-0.559262	1.59711	-0.137918	0.0968095	1.79784	0.398075	-0.142711	-0.019656	1.56656	-0.232203	0.334441	1.90047	0.374509	-0.56241	-0.019656	-0.549195	-0.00920076	0.0977945	2.09349	-0.397675	0.55546	1.66727	1.79899	2.06086	-0.132751	0.585006	1.62064	2.00332
1.6	-0.37683	-0.0933527	-0.125547	-0.384241	0.724163	-0.559948	1.57662	-0.13127	0.0939043	1.77094	0.389474	-0.159618	-0.019656	1.54665	-0.232061	0.32671	1.87379	0.369319	-0.57005	-0.019656	-0.531667	-0.00698868	0.0969165	2.12362	-0.408472	0.572094	1.66315	1.79582	2.08667	-0.133994	0.586889	1.61001	2.00779
1.61	-0.380441	-0.0939115	-0.125481	-0.380347	0.736161	-0.560613	1.5538	-0.124292	0.0912862	1.7421	0.380576	-0.177178	-0.019656	1.52483	-0.232759	0.318492	1.84507	0.364577	-0.575801	-0.019656	-0.51448	-0.00472742	0.0955743	2.15483	-0.420854	0.591426	1.6593	1.79229	2.11331	-0.135657	0.59027	1.59703	2.0141
1.62	-0.382918	-0.0947163	-0.124914	-0.376264	0.748821	-0.56126	1.52838	-0.117078	0.0890106	1.71131	0.371457	-0.195346	-0.019656	1.50083	-0.23409	0.309895	1.81428	0.360193	-0.579648	-0.019656	-0.497859	-0.0023436	0.0934556	2.18704	-0.43442	0.613491	1.65551	1.78718	2.14072	-0.137828	0.595492	1.58161	2.02227
1.63	-0.384072	-0.0958243	-0.123639	-0.37196	0.762134	-0.561899	1.50016	-0.109783	0.087081	1.67858	0.362207	-0.214071	-0.019656	1.47441	-0.235832	0.301036	1.78138	0.356052	-0.581566	-0.019656	-0.481979	0.000261755	0.0902001	2.22004	-0.448771	0.638129	1.65161	1.77966	2.16881	-0.140778	0.603015	1.56394	2.03156
1.64	-0.383791	-0.0972792	-0.121461	-0.367408	0.776092	-0.562541	1.46901	-0.102599	0.085454	1.64389	0.352929	-0.233292	-0.019656	1.44545	-0.237794	0.292024	1.74632	0.352028	-0.581529	-0.019656	-0.466934	0.00319161	0.0854659	2.25351	-0.463597	0.665005	1.64756	1.76943	2.19745	-0.144927	0.613415	1.54446	2.0404
1.65	-0.382049	-0.0991125	-0.118238	-0.362583	0.790677	-0.563196	1.43489	-0.0957083	0.0840461	1.60719	0.343699	-0.252953	-0.019656	1.4139	-0.239876	0.282945	1.70908	0.347989	-0.579543	-0.019656	-0.452713	0.00653097	0.0790174	2.28699	-0.478759	0.693651	1.64353	1.75689	2.22643	-0.150788	0.627298	1.52386	2.04664
1.66	-0.378914	-0.101351	-0.113921	-0.357467	0.805867	-0.563865	1.39788	-0.0892365	0.0827358	1.56843	0.334521	-0.273	-0.019656	1.37988	-0.24212	0.273855	1.66962	0.343802	-0.575677	-0.019656	-0.439193	0.010336	0.0708074	2.31996	-0.49436	0.723563	1.63991	1.74249	2.2554	-0.158918	0.645162	1.50305	2.04818
1.67	-0.374518	-0.104011	-0.108556	-0.352045	0.821639	-0.564546	1.35813	-0.0832638	0.0813752	1.52755	0.32529	-0.293368	-0.019656	1.34358	-0.244697	0.26476	1.62796	0.339313	-0.570098	-0.019656	-0.426172	0.0146266	0.0610119	2.35191	-0.510777	0.754286	1.63736	1.72642	2.28393	-0.169874	0.667264	1.48316	2.04334
1.68	-0.369023	-0.107075	-0.102247	-0.34631	0.837971	-0.565241	1.31586	-0.0778745	0.0798108	1.48446	0.315753	-0.313932	-0.019656	1.30524	-0.247835	0.255591	1.58409	0.334321	-0.56309	-0.019656	-0.413415	0.0193721	0.0500096	2.38241	-0.528657	0.785507	1.63676	1.70861	2.31144	-0.184188	0.69356	1.46555	2.03123
1.69	-0.362568	-0.110453	-0.0951173	-0.340249	0.854852	-0.565954	1.27124	-0.0732206	0.077904	1.43907	0.305499	-0.33445	-0.019656	1.26506	-0.251725	0.246164	1.53802	0.328548	-0.555049	-0.019656	-0.400704	0.0244693	0.0383331	2.4113	-0.54886	0.817143	1.63915	1.68904	2.33733	-0.20234	0.723711	1.45174	2.01197
1.7	-0.355239	-0.11396	-0.0872912	-0.333847	0.872295	-0.566701	1.22442	-0.0695576	0.0755312	1.3912	0.293964	-0.354489	-0.019656	1.22308	-0.256454	0.236151	1.48966	0.321613	-0.54643	-0.019656	-0.387875	0.0297227	0.0266212	2.43879	-0.572362	0.849464	1.64558	1.66808	2.36107	-0.224728	0.757183	1.44332	1.98677
1.71	-0.347039	-0.117314	-0.0788902	-0.327076	0.890349	-0.567502	1.17538	-0.06724	0.0725581	1.34059	0.28044	-0.373355	-0.019656	1.17919	-0.261971	0.225066	1.43884	0.31301	-0.537626	-0.019656	-0.374841	0.0348404	0.0155867	2.46561	-0.600123	0.883245	1.65704	1.64655	2.38229	-0.251651	0.793392	1.4418	1.95782
1.72	-0.337887	-0.120162	-0.0700521	-0.319896	0.90909	-0.568383	1.12396	-0.0666725	0.0687922	1.28682	0.264086	-0.390028	-0.019656	1.13301	-0.268096	0.212263	1.38526	0.302093	-0.528803	-0.019656	-0.361588	0.0394565	0.00600715	2.49322	-0.632927	0.919934	1.67439	1.62577	2.40094	-0.283291	0.831904	1.44832	1.92805
1.73	-0.327624	-0.122123	-0.0609579	-0.312259	0.928613	-0.569373	1.06979	-0.0682362	0.0639421	1.22923	0.243921	-0.40311	-0.019656	1.08392	-0.27455	0.196935	1.32837	0.288061	-0.519729	-0.019656	-0.348165	0.0431641	-0.00127606	2.52383	-0.671222	0.961812	1.69835	1.60714	2.4173	-0.319721	0.872612	1.46354	1.90069
1.74	-0.316043	-0.122836	-0.0518621	-0.304115	0.949023	-0.570489	1.01236	-0.0721958	0.057584	1.16693	0.218804	-0.410818	-0.019656	1.03109	-0.281	0.178112	1.26742	0.269951	-0.509648	-0.019656	-0.33466	0.045569	-0.00535935	2.56054	-0.714955	1.01209	1.72949	1.59165	2.43195	-0.360951	0.915892	1.48745	1.8786
1.75	-0.302938	-0.122025	-0.0431099	-0.295419	0.970412	-0.571739	0.951055	-0.0786079	0.0491343	1.09882	0.18742	-0.411046	-0.019656	0.97355	-0.287101	0.154685	1.20139	0.24662	-0.497242	-0.019656	-0.32116	0.0463697	-0.00530738	2.60716	-0.763431	1.07488	1.76828	1.57931	2.44563	-0.407008	0.962593	1.51946	1.86341
1.76	-0.288176	-0.119572	-0.0351306	-0.286148	0.992844	-0.573124	0.88531	-0.0872474	0.0378362	1.0237	0.148307	-0.401513	-0.019656	0.91037	-0.292543	0.125473	1.12915	0.216737	-0.480711	-0.019656	-0.307703	0.0454507	-0.000229193	2.66799	-0.815236	1.15499	1.81503	1.56898	2.45884	-0.458023	1.01375	1.55841	1.85525
1.77	-0.271764	-0.115577	-0.0284081	-0.276306	1.01634	-0.574635	0.814806	-0.0975616	0.022776	0.940495	0.0999959	-0.379992	-0.019656	0.840872	-0.297086	0.0893323	1.04954	0.178803	-0.457957	-0.019656	-0.294243	0.0429699	0.0105956	2.74722	-0.868248	1.25739	1.86978	1.55882	2.47128	-0.51429	1.06996	1.60276	1.85296
1.78	-0.253906	-0.110408	-0.0234367	-0.26594	1.04088	-0.576243	0.739659	-0.10867	0.0029434	0.848548	0.0412698	-0.344625	-0.019656	0.764874	-0.300597	0.0453209	0.961682	0.131243	-0.426895	-0.019656	-0.28063	0.0394066	0.0275484	2.84822	-0.919801	1.38649	1.93225	1.54682	2.48111	-0.576259	1.13053	1.65073	1.8545
1.79	-0.235034	-0.104683	-0.0206724	-0.25516	1.06641	-0.577903	0.660611	-0.119432	-0.0226516	0.747989	-0.028446	-0.294312	-0.019656	0.682912	-0.303069	-0.00711422	0.865231	0.0726004	-0.385845	-0.019656	-0.266614	0.0355385	0.0504764	2.97263	-0.967001	1.54523	2.00163	1.53166	2.48426	-0.644444	1.19244	1.70052	1.8575
1.8	-0.215812	-0.0991964	-0.0204893	-0.244132	1.09282	-0.579551	0.579164	-0.128588	-0.054801	0.640076	-0.10863	-0.229149	-0.019656	0.596387	-0.304603	-0.06795	0.760707	0.00186365	-0.333991	-0.019656	-0.251875	0.0323303	0.0785066	3.11955	-1.0072	1.73421	2.07657	1.51331	2.47374	-0.719266	1.24953	1.75047	1.85982
1.81	-0.197095	-0.0947567	-0.0231484	-0.233082	1.11992	-0.581111	0.497605	-0.134979	-0.093867	0.527447	-0.197261	-0.150836	-0.019656	0.507569	-0.305356	-0.136437	0.649715	-0.0811246	-0.271795	-0.019656	-0.236091	0.0307318	0.109939	3.28516	-1.03855	1.95122	2.15514	1.49346	2.4395	-0.800799	1.29197	1.79928	1.85991
1.82	-0.179823	-0.0919918	-0.0287808	-0.222267	1.14744	-0.582499	0.418864	-0.137791	-0.139535	0.414164	-0.290631	-0.0629299	-0.019656	0.419432	-0.305465	-0.211019	0.535053	-0.175243	-0.201271	-0.019656	-0.219043	0.03142	0.142304	3.46302	-1.06046	2.19136	2.23485	1.47552	2.36883	-0.888403	1.30653	1.84605	1.85709
1.83	-0.164873	-0.0911597	-0.0373781	-0.211945	1.17503	-0.583624	0.3462	-0.136785	-0.190619	0.305452	-0.383548	0.0291818	-0.019656	0.335322	-0.304956	-0.289359	0.420635	-0.277784	-0.126001	-0.019656	-0.200746	0.0345585	0.172635	3.64528	-1.0739	2.448	2.31286	1.46412	2.24764	-0.98026	1.27774	1.89025	1.85163
1.84	-0.152907	-0.0920424	-0.0487853	-0.202328	1.20225	-0.584399	0.282745	-0.132418	-0.24501	0.2071	-0.470066	0.118686	-0.019656	0.258539	-0.303696	-0.368484	0.311195	-0.384397	-0.0507742	-0.019656	-0.181543	0.0396671	0.197941	3.82444	-1.08113	2.71426	2.38609	1.46404	2.06273	-1.07294	1.19019	1.93158	1.84461
1.85	-0.144253	-0.0939755	-0.0626859	-0.193595	1.22868	-0.584772	0.230998	-0.125787	-0.299805	0.12456	-0.544679	0.198136	-0.019656	0.191889	-0.301416	-0.445051	0.211782	-0.489437	0.0191458	-0.019656	-0.162134	0.0456735	0.215774	3.99519	-1.08501	2.98449	2.45156	1.47876	1.80505	-1.16114	1.03193	1.96965	1.83758
1.86	-0.138836	-0.0960317	-0.0785727	-0.185939	1.25399	-0.584765	0.192377	-0.118369	-0.351602	0.0619261	-0.603655	0.260541	-0.019656	0.137305	-0.297809	-0.515678	0.127068	-0.58677	0.0790049	-0.019656	-0.143535	0.0511662	0.224749	4.15539	-1.08804	3.25512	2.50656	1.5095	1.47366	-1.23792	0.798696	2.00371	1.83225
1.87	-0.136177	-0.0973094	-0.0957135	-0.179553	1.27805	-0.584446	0.166937	-0.111613	-0.396853	0.0211345	-0.645887	0.300601	-0.019656	0.0955962	-0.292688	-0.577268	0.060628	-0.670937	0.125506	-0.019656	-0.126993	0.0547837	0.224817	4.30597	-1.09142	3.5244	2.54889	1.55513	1.07958	-1.29555	0.498164	2.03244	1.83023
